<?xml version="1.0" standalone="no"?>
<!DOCTYPE svg PUBLIC "-//W3C//DTD SVG 20010904//EN"
 "http://www.w3.org/TR/2001/REC-SVG-20010904/DTD/svg10.dtd">
<svg version="1.0" xmlns="http://www.w3.org/2000/svg"
 width="300.000000pt" height="83.000000pt" viewBox="0 0 300.000000 83.000000"
 preserveAspectRatio="xMidYMid meet">

<g transform="translate(0.000000,83.000000) scale(0.100000,-0.100000)"
fill="#000000" stroke="none">
<path d="M1358 821 c-55 -18 -89 -47 -113 -95 -25 -49 -25 -54 -25 -300 1
-315 9 -344 109 -389 88 -39 213 -17 274 48 29 32 50 98 45 141 -3 29 -3 29
-73 29 l-70 0 -6 -49 c-8 -71 -54 -97 -107 -60 -22 15 -22 18 -22 274 l0 259
26 20 c15 12 32 21 39 21 7 0 24 -9 39 -21 21 -17 26 -29 26 -65 l0 -44 70 0
70 0 0 59 c0 71 -26 115 -89 150 -47 26 -146 37 -193 22z"/>
<path d="M1682 808 c3 -7 42 -185 89 -395 l84 -383 77 0 c43 0 78 2 78 5 0 7
170 746 176 768 5 15 -3 17 -70 17 -70 0 -76 -2 -81 -22 -3 -13 -23 -131 -45
-263 -23 -132 -44 -251 -48 -264 -6 -17 -22 54 -56 245 -26 148 -50 277 -52
287 -5 14 -17 17 -81 17 -56 0 -74 -3 -71 -12z"/>
<path d="M2234 428 l-80 -393 60 -5 c34 -3 64 -4 68 -3 3 2 12 44 19 93 l12
90 68 0 67 0 12 -72 c6 -40 12 -80 13 -88 2 -11 19 -16 75 -18 71 -3 73 -2 67
20 -11 48 -155 751 -155 759 0 5 -33 9 -73 9 l-73 0 -80 -392z m153 -96 c-22
-2 -41 -1 -43 1 -3 3 4 58 16 124 11 66 21 124 21 129 1 5 11 -49 23 -121 l21
-130 -38 -3z"/>
<path d="M2570 765 l0 -55 70 0 70 0 0 -339 c0 -187 3 -342 8 -344 4 -3 37 -3
75 0 l67 6 0 338 0 339 70 0 70 0 0 55 0 55 -215 0 -215 0 0 -55z"/>
<path d="M555 799 c-202 -29 -407 -142 -513 -283 l-43 -57 11 -55 c6 -30 29
-90 51 -134 105 -209 345 -313 580 -252 174 46 333 213 370 390 25 123 -17
329 -75 367 -46 30 -251 43 -381 24z m20 -90 c75 -21 145 -117 145 -199 0
-145 -155 -250 -288 -194 -171 71 -175 307 -7 385 46 21 93 24 150 8z"/>
</g>
</svg>
