<?xml version="1.0" standalone="no"?>
<!DOCTYPE svg PUBLIC "-//W3C//DTD SVG 20010904//EN"
 "http://www.w3.org/TR/2001/REC-SVG-20010904/DTD/svg10.dtd">
<svg version="1.0" xmlns="http://www.w3.org/2000/svg"
 width="208.000000pt" height="54.000000pt" viewBox="0 0 208.000000 54.000000"
 preserveAspectRatio="xMidYMid meet">

<g transform="translate(0.000000,54.000000) scale(0.100000,-0.100000)"
fill="#000000" stroke="none">
<path d="M620 522 c0 -5 7 -31 15 -58 8 -27 15 -55 15 -61 0 -20 -28 -15 -40
7 -14 26 -26 25 -66 -2 -40 -28 -74 -86 -73 -124 1 -27 2 -27 8 6 4 19 12 44
19 55 11 19 11 19 12 -4 0 -14 7 -33 17 -43 13 -15 14 -18 1 -18 -8 0 -24 -12
-37 -26 -17 -19 -21 -33 -16 -55 4 -16 11 -31 16 -34 16 -11 9 -23 -10 -18
-25 6 -31 41 -31 184 0 99 3 119 15 119 8 0 15 5 15 10 0 6 -26 10 -59 10 -54
0 -59 -2 -65 -24 -11 -45 -68 -186 -74 -186 -4 0 -27 47 -52 105 l-44 105 -58
0 c-58 0 -77 -13 -37 -23 21 -6 21 -9 14 -139 -7 -131 -14 -158 -41 -158 -8 0
-14 -4 -14 -10 0 -6 28 -10 65 -10 66 0 86 12 40 24 -28 7 -30 23 -19 160 l7
77 55 -131 c30 -72 60 -129 66 -127 6 2 31 58 56 125 25 66 48 124 53 128 4 4
7 -47 7 -114 0 -115 -1 -122 -20 -122 -11 0 -20 -5 -20 -11 0 -6 31 -10 85 -8
74 2 89 -1 108 -18 29 -27 54 -39 99 -47 63 -11 111 8 163 66 47 52 47 53 42
113 -2 33 -8 69 -12 80 -8 18 -7 19 10 5 10 -8 38 -57 62 -107 25 -51 49 -93
54 -93 6 0 31 45 56 100 28 61 54 102 65 106 10 3 18 9 18 14 0 11 -99 10
-106 -1 -3 -5 2 -9 10 -9 27 0 29 -21 6 -71 l-23 -49 -30 52 c-27 46 -28 53
-13 63 27 20 19 24 -54 22 -55 -1 -73 3 -90 18 -16 14 -23 16 -32 7 -7 -7 -17
-12 -22 -12 -6 0 9 20 33 44 26 27 41 50 38 59 -9 24 -90 57 -140 57 -26 0
-47 -4 -47 -8z m63 -12 c-12 -5 -26 -17 -32 -27 -6 -10 -11 -13 -11 -6 0 6 -3
18 -6 27 -5 13 1 16 32 15 33 0 35 -2 17 -9z m85 -18 l23 -18 -22 -19 c-12
-11 -19 -14 -15 -7 4 7 1 24 -8 37 -19 29 -10 32 22 7z m-30 -34 c4 -30 -25
-52 -54 -41 -12 4 -15 3 -10 -5 4 -7 14 -12 23 -12 14 0 13 -3 -3 -21 -17 -19
-19 -19 -25 -2 -11 27 1 86 19 101 25 19 47 10 50 -20z m-144 -54 c3 -9 6 -17
6 -18 0 -1 -14 0 -32 2 -29 4 -30 6 -13 18 24 18 32 18 39 -2z m206 -66 c0 -5
-8 -5 -17 0 -10 5 -24 7 -30 5 -7 -3 -13 -2 -13 2 0 3 6 12 13 19 10 12 15 12
30 -1 9 -9 17 -20 17 -25z m-245 12 c-10 -11 -20 -18 -23 -15 -7 6 18 35 31
35 5 0 2 -9 -8 -20z m75 -72 c0 -37 17 -35 51 5 l28 32 1 -25 c0 -15 5 -31 12
-38 17 -17 58 -15 80 5 22 19 23 8 7 -51 l-11 -39 -19 32 c-32 53 -99 39 -99
-21 0 -29 40 -65 60 -53 5 3 10 3 10 0 0 -9 -67 -35 -90 -35 -20 0 -20 1 -6
16 22 21 20 57 -4 79 -42 38 -107 -14 -80 -64 11 -21 10 -22 -8 -12 -23 12
-72 68 -72 82 0 6 7 3 16 -5 19 -20 34 -20 62 0 25 18 29 56 7 78 -19 19 -19
26 0 26 8 0 20 9 27 20 15 23 28 9 28 -32z m167 0 c-3 -7 -5 -2 -5 12 0 14 2
19 5 13 2 -7 2 -19 0 -25z m-277 -76 c0 -15 -2 -15 -10 -2 -13 20 -13 33 0 25
6 -3 10 -14 10 -23z"/>
<path d="M1147 474 c-15 -15 -7 -53 13 -59 27 -8 52 12 48 39 -3 21 -46 35
-61 20z"/>
<path d="M1500 461 c0 -5 9 -11 20 -14 19 -5 20 -14 20 -147 0 -133 -1 -142
-20 -147 -44 -12 -16 -23 55 -23 71 0 99 11 55 23 -19 5 -20 14 -20 146 0 122
2 143 16 148 35 13 81 -47 70 -92 -8 -32 -35 -57 -53 -51 -9 4 -13 1 -11 -6 3
-7 21 -14 41 -16 69 -6 120 76 87 139 -20 36 -63 49 -165 49 -52 0 -95 -4 -95
-9z"/>
<path d="M1155 342 c-43 -12 -47 -16 -32 -27 24 -17 25 -165 2 -165 -8 0 -15
-4 -15 -10 0 -6 31 -10 73 -10 71 0 72 1 49 18 -22 17 -23 24 -21 110 1 51 0
94 -2 96 -2 1 -26 -4 -54 -12z"/>
<path d="M1326 339 c-53 -42 -69 -104 -41 -159 19 -37 43 -50 94 -50 41 0 104
40 88 56 -4 4 -13 2 -19 -4 -34 -34 -108 3 -108 53 0 24 2 25 65 25 l65 0 0
29 c0 62 -90 93 -144 50z m72 -11 c7 -7 12 -20 12 -30 0 -14 -8 -18 -35 -18
-37 0 -42 9 -25 41 12 22 30 25 48 7z"/>
<path d="M1780 350 c0 -4 7 -10 15 -13 22 -9 107 -185 100 -207 -9 -28 -53
-60 -82 -60 -20 0 -24 -4 -21 -23 2 -13 11 -23 24 -25 40 -6 76 39 141 176 44
91 71 136 84 139 37 10 18 22 -36 22 -30 0 -55 -5 -55 -10 0 -5 6 -9 14 -9 26
0 26 -17 2 -70 l-24 -51 -26 47 c-26 46 -28 74 -6 74 5 0 10 4 10 9 0 5 -31 9
-70 9 -38 0 -70 -3 -70 -8z"/>
</g>
</svg>
